<svg width="1439" height="831" viewBox="0 0 1439 831" fill="none" xmlns="http://www.w3.org/2000/svg">
<path d="M1 543C1 536.373 6.37258 531 13 531H1427C1433.63 531 1439 536.373 1439 543V819C1439 825.627 1433.63 831 1427 831H13C6.37262 831 1 825.627 1 819V543Z" fill="#D5F4FE"/>
<path d="M248.875 4.98414C132.999 -15.0164 34.6766 29.9849 0 54.9856V550H1438V129C1438 -33.4886 1400.43 126.222 1384.5 138C1325 182 1358.36 198.49 1299.13 240.991C1239.9 283.492 1149.8 204.49 1071.16 164.489C992.514 124.488 961.653 193.49 865.587 157.989C769.522 122.488 803.546 65.9859 703 54.9856C620.645 45.9754 640.354 35.4988 497.5 76C354.646 116.501 393.72 29.9849 248.875 4.98414Z" fill="url(#paint0_linear_83_155)"/>
<defs>
<linearGradient id="paint0_linear_83_155" x1="719" y1="0" x2="719" y2="550" gradientUnits="userSpaceOnUse">
<stop stop-color="#E0F4DB"/>
<stop offset="1" stop-color="#D5F4FE"/>
</linearGradient>
</defs>
</svg>
