<svg width="1145" height="1503" viewBox="0 0 1145 1503" fill="none" xmlns="http://www.w3.org/2000/svg">
<path d="M-54 574.31C-54 567.683 -48.6274 562.31 -42 562.31H1198C1204.63 562.31 1210 567.683 1210 574.31V868C1210 874.627 1204.63 880 1198 880H-42C-48.6274 880 -54 874.627 -54 868V574.31Z" fill="#D5F4FE"/>
<path d="M164.761 5.27803C62.9058 -15.9019 -23.5193 31.7529 -54 58.2278V582.431H1210V136.607C1210 -35.4633 1176.97 133.665 1162.97 146.137C1110.67 192.732 1140 210.194 1087.93 255.201C1035.87 300.208 956.675 216.548 887.547 174.188C818.418 131.828 791.292 204.899 706.85 167.304C622.408 129.71 652.315 69.8768 563.936 58.2278C491.546 48.6864 508.871 37.592 383.302 80.4814C257.733 123.371 292.08 31.7529 164.761 5.27803Z" fill="url(#paint0_linear_208_72)"/>
<rect y="844" width="1145" height="659" fill="#D5F4FE"/>
<defs>
<linearGradient id="paint0_linear_208_72" x1="578" y1="0" x2="578" y2="582.431" gradientUnits="userSpaceOnUse">
<stop stop-color="#E0F4DB"/>
<stop offset="1" stop-color="#D5F4FE"/>
</linearGradient>
</defs>
</svg>
