<svg width="1627" height="1234" viewBox="0 0 1627 1234" fill="none" xmlns="http://www.w3.org/2000/svg">
<mask id="mask0_219_102" style="mask-type:alpha" maskUnits="userSpaceOnUse" x="0" y="0" width="1627" height="1234">
<rect width="1627" height="1234" fill="white"/>
</mask>
<g mask="url(#mask0_219_102)">
<path fill-rule="evenodd" clip-rule="evenodd" d="M376.306 405.708C457.223 391.843 552.068 321.602 617.255 368.581C688.064 419.612 626.425 531.589 657.699 608.504C679.096 661.128 736.218 693.501 768.79 741.261C810.877 802.974 892.19 861.274 878.427 932.159C864.817 1002.25 776.796 1043.48 704.806 1070.8C639.732 1095.49 550.949 1039.14 494.783 1077.74C426.745 1124.49 462.39 1247.14 389.508 1287.48C329.428 1320.73 243.711 1284.15 182.939 1250.33C123.812 1217.43 111.536 1141.13 56.8246 1102.36C-3.30698 1059.74 -122.596 1081.03 -147.967 1015.8C-174.562 947.42 -63.086 892.635 -52.5269 821.214C-43.8734 762.682 -111.517 705.836 -93.7606 649.146C-76.3628 593.601 -10.3051 564.471 39.1363 528.563C86.6915 494.024 135.685 462.022 192.281 441.4C251.032 419.993 313.969 416.39 376.306 405.708Z" fill="#E6F8E2" fill-opacity="0.65"/>
<path fill-rule="evenodd" clip-rule="evenodd" d="M1235.46 -67.7844C1314.48 -90.2886 1401.37 -171.727 1471.19 -130.554C1547.02 -85.8299 1497.58 34.74 1536.84 109.949C1563.7 161.405 1623.95 188.517 1661.41 233.857C1709.81 292.444 1796.86 343.496 1790.69 417.21C1784.58 490.103 1701.4 541.247 1632.69 576.547C1570.58 608.457 1476.3 560.162 1424.53 605.331C1361.81 660.049 1410.26 781.445 1342.05 830.116C1285.81 870.238 1196.68 841.79 1132.65 813.584C1070.35 786.141 1050.05 709.6 991.525 675.708C927.198 638.459 810.805 672.501 778.656 608.6C744.957 541.616 850.03 474.222 852.963 400.292C855.366 339.704 782.061 288.722 793.713 229.072C805.131 170.626 867.748 134.09 913.119 92.3589C956.759 52.2197 1002.1 14.5183 1056.21 -12.363C1112.37 -40.2673 1174.59 -50.4478 1235.46 -67.7844Z" fill="#D7F5FF" fill-opacity="0.48"/>
</g>
</svg>
