<svg width="615" height="488" viewBox="0 0 615 488" fill="none" xmlns="http://www.w3.org/2000/svg">
<path fill-rule="evenodd" clip-rule="evenodd" d="M346.891 453.063C295.276 435.557 289.778 377.313 238.932 358.58C168.01 332.451 55.8668 378.193 11.0324 329.325C-29.1951 285.478 56.4503 232.434 76.252 181.263C96.981 127.696 71.4352 57.6972 129.573 22.997C187.594 -11.6342 277.798 -1.04719 346.297 20.0825C404.164 37.9329 414.678 96.2879 463.231 125.92C507.199 152.755 592.834 141.62 611.36 181.854C629.8 221.904 548.069 251.961 540.614 293.984C530.136 353.052 614.2 423.728 560.653 467.699C511.111 508.381 413.727 475.732 346.891 453.063Z" fill="url(#paint0_linear_6_136)"/>
<defs>
<linearGradient id="paint0_linear_6_136" x1="535.81" y1="367.413" x2="320.088" y2="-7.17537" gradientUnits="userSpaceOnUse">
<stop stop-color="#E0F4DB"/>
<stop offset="1" stop-color="#D5F4FE"/>
</linearGradient>
</defs>
</svg>
